<?xml version="1.0" encoding="utf-8"?>
<!-- Generator: Adobe Illustrator 24.0.0, SVG Export Plug-In . SVG Version: 6.00 Build 0)  -->
<svg version="1.1" id="图层_1" xmlns="http://www.w3.org/2000/svg" xmlns:xlink="http://www.w3.org/1999/xlink" x="0px" y="0px"
	 viewBox="0 0 155 40" style="enable-background:new 0 0 155 40;" xml:space="preserve">
<style type="text/css">
	.st0{fill-rule:evenodd;clip-rule:evenodd;fill:#FFD500;}
	.st1{fill-rule:evenodd;clip-rule:evenodd;fill:url(#SVGID_1_);}
	.st2{fill-rule:evenodd;clip-rule:evenodd;fill:url(#SVGID_2_);}
	.st3{fill-rule:evenodd;clip-rule:evenodd;fill:#FFFFFF;}
	.st4{fill:#FFFFFF;}
</style>
<g>
	<g>
		<path class="st0" d="M43.3,15.4h-8.1c-0.2,0-0.4-0.2-0.4-0.4v-0.6c0-3.2,2.6-5.6,5.6-5.6h8.1c0.2,0.1,0.4,0.3,0.4,0.5V10
			C48.8,13,46.4,15.4,43.3,15.4z"/>
		<g>
			
				<linearGradient id="SVGID_1_" gradientUnits="userSpaceOnUse" x1="33.9349" y1="-1515.83" x2="48.8669" y2="-1515.83" gradientTransform="matrix(1 0 0 -1 0 -1496.13)">
				<stop  offset="0" style="stop-color:#C7B3FF"/>
				<stop  offset="6.897312e-02" style="stop-color:#CEBDFF"/>
				<stop  offset="0.3065" style="stop-color:#E3DAFF"/>
				<stop  offset="0.5428" style="stop-color:#F3EEFF"/>
				<stop  offset="0.7755" style="stop-color:#FCFBFF"/>
				<stop  offset="1" style="stop-color:#FFFFFF"/>
			</linearGradient>
			<path class="st1" d="M48.8,23H33.9v-6.6h14.6c0.2,0,0.4,0.2,0.4,0.4L48.8,23L48.8,23z"/>
		</g>
		<g>
			
				<linearGradient id="SVGID_2_" gradientUnits="userSpaceOnUse" x1="33.9349" y1="-1523.28" x2="48.8669" y2="-1523.28" gradientTransform="matrix(1 0 0 -1 0 -1496.13)">
				<stop  offset="0" style="stop-color:#C7B3FF"/>
				<stop  offset="6.897312e-02" style="stop-color:#CEBDFF"/>
				<stop  offset="0.3065" style="stop-color:#E3DAFF"/>
				<stop  offset="0.5428" style="stop-color:#F3EEFF"/>
				<stop  offset="0.7755" style="stop-color:#FCFBFF"/>
				<stop  offset="1" style="stop-color:#FFFFFF"/>
			</linearGradient>
			<path class="st2" d="M48.5,30.4H33.9v-6.5h14.9v6.2C48.8,30.2,48.7,30.4,48.5,30.4z"/>
		</g>
		<g>
			<path class="st3" d="M33.9,24V9.4c0-0.2-0.2-0.4-0.4-0.4h-5.8c-0.2,0-0.4,0.2-0.4,0.4v15.4c0,3.2,2.6,5.6,5.6,5.6h0.6h0.4h6.6
				C36.9,30.4,33.9,27.6,33.9,24z"/>
		</g>
		<path class="st4" d="M38.2,2c9.9,0,17.7,8,17.7,17.7l0,0c0,9.9-8,17.7-17.7,17.7l0,0c-9.9,0-17.7-8-17.7-17.7l0,0
			C20.4,10,28.3,2,38.2,2L38.2,2 M38.2,0.1c-2.7,0-5.2,0.5-7.7,1.6c-2.3,1-4.4,2.4-6.2,4.3c-1.8,1.8-3.3,4-4.3,6.3
			c-1.1,2.5-1.6,5-1.6,7.7s0.5,5.2,1.6,7.7c1,2.4,2.5,4.5,4.3,6.3s4,3.3,6.3,4.3c2.5,1,5,1.6,7.7,1.6s5.2-0.5,7.7-1.6
			c2.4-1,4.5-2.5,6.3-4.3s3.3-4,4.3-6.3c1-2.5,1.6-5,1.6-7.7s-0.5-5.2-1.6-7.7c-1-2.4-2.5-4.5-4.3-6.3s-4-3.3-6.2-4.3
			C43.3,0.6,40.8,0.1,38.2,0.1L38.2,0.1z"/>
	</g>
	<g id="Erda">
		<g id="完整白色" transform="translate(-405.000000, -261.000000)">
			<path id="形状结合" class="st3" d="M491,272.1c0.2,0,0.4,0.2,0.4,0.4v2.3c0,0.8-0.6,1.4-1.4,1.5l0,0l0,0l-13.5,0l0,0
				c-0.2,0-0.4,0.1-0.6,0.2c-0.3,0.2-0.5,0.5-0.5,1.3l0,1.1l12.1,0c0.2,0,0.4,0.2,0.4,0.4v2.3c0,0.8-0.7,1.5-1.5,1.5l0,0l-11,0
				l0,1.5l0,0c0,0.1,0.1,0.6,0.5,0.8c0.3,0.2,0.9,0.3,1.1,0.3l13,0c0.8,0,1.5,0.7,1.5,1.5v2.3c0,0.2-0.2,0.4-0.4,0.4h-14.3
				c-0.5,0-0.9-0.1-1.3-0.2c-2-0.5-3.5-2-4-4c-0.1-0.4-0.2-0.9-0.2-1.3v-6.8c0-0.5,0.1-0.9,0.2-1.3c0.5-2,2-3.5,4-4
				c0.4-0.1,0.9-0.2,1.3-0.2H491z M508.7,276.3v2.1c0,0.7-0.5,1.2-1.2,1.2H501c-1.5,0-2.9,0.8-3.7,1.9c-0.5,0.7-0.8,1.6-0.8,2.5v5.9
				h-3.3v-5.2c0,0,0-0.5,0-0.7c0-0.9,0.1-1.7,0.4-2.5c0.2-0.7,0.6-1.3,1-1.9c0.5-0.7,1.1-1.3,1.9-1.9c1.3-0.9,2.8-1.4,4.4-1.4H508.7
				z M524.3,272.1v17.8h-8.6c-1.3,0-2.5-0.4-3.6-1c-0.9-0.6-1.7-1.3-2.3-2.3c-0.6-1-1-2.3-1-3.6c0-1.3,0.4-2.5,1-3.6
				c0.6-0.9,1.3-1.7,2.3-2.3c1-0.6,2.3-1,3.6-1h5.3l0-3c0-0.6,0.5-1.2,1.1-1.2l0,0H524.3z M530.4,289.9c-0.3,0-0.7,0-1-0.1
				c-1.6-0.4-2.8-1.6-3.2-3.2c-0.1-0.3-0.1-0.6-0.1-1s0-0.7,0.1-1c0.4-1.6,1.6-2.8,3.2-3.2c0.3-0.1,0.6-0.1,1-0.1l7.9,0l0-1
				c0-0.5-0.4-1-1-1h-6.7c-0.7,0-1.2-0.5-1.2-1.2v-2.1h7.9c0.3,0,0.7,0,1,0.1c1.6,0.4,2.8,1.6,3.1,3.2c0.1,0.3,0.1,0.6,0.1,1v9.4
				H530.4z M538.3,286.6v-1.9l-7.9,0c-0.5,0-1,0.4-1,1c0,0.5,0.4,1,1,1H538.3z M521,279.5l-5.3,0c-2,0-3.6,1.6-3.6,3.6
				c0,2,1.6,3.6,3.6,3.6l5.3,0V279.5z"/>
		</g>
	</g>
</g>
</svg>
