<?xml version="1.0" encoding="utf-8"?>
<!-- Generator: Adobe Illustrator 24.0.0, SVG Export Plug-In . SVG Version: 6.00 Build 0)  -->
<svg version="1.1" id="图层_1" xmlns="http://www.w3.org/2000/svg" xmlns:xlink="http://www.w3.org/1999/xlink" x="0px" y="0px"
	 viewBox="0 0 155 40" style="enable-background:new 0 0 155 40;" xml:space="preserve">
<style type="text/css">
	.st0{fill-rule:evenodd;clip-rule:evenodd;fill:#6B4FBB;}
	.st1{fill-rule:evenodd;clip-rule:evenodd;fill:#FFD500;}
	.st2{fill-rule:evenodd;clip-rule:evenodd;fill:url(#SVGID_1_);}
	.st3{fill-rule:evenodd;clip-rule:evenodd;fill:url(#SVGID_2_);}
	.st4{fill-rule:evenodd;clip-rule:evenodd;fill:#FFFFFF;}
</style>
<g>
	<g>
		<path class="st0" d="M38.3,39.9L38.3,39.9c-10.9,0-19.9-9-19.9-19.9l0,0c0-10.9,9-19.9,19.9-19.9l0,0c10.9,0,19.9,9,19.9,19.9l0,0
			C58.2,30.9,49.3,39.9,38.3,39.9z"/>
		<g>
			<path class="st1" d="M44.1,15.3H35c-0.2,0-0.4-0.2-0.4-0.4v-0.6c0-3.5,2.8-6.3,6.3-6.3h9.1c0.2,0,0.4,0.2,0.4,0.4v0.6
				C50.3,12.4,47.6,15.3,44.1,15.3z"/>
			<g>
				
					<linearGradient id="SVGID_1_" gradientUnits="userSpaceOnUse" x1="33.6205" y1="-748.13" x2="50.3816" y2="-748.13" gradientTransform="matrix(1 0 0 -1 0 -728.13)">
					<stop  offset="0" style="stop-color:#C7B3FF"/>
					<stop  offset="6.897312e-02" style="stop-color:#CEBDFF"/>
					<stop  offset="0.3065" style="stop-color:#E3DAFF"/>
					<stop  offset="0.5428" style="stop-color:#F3EEFF"/>
					<stop  offset="0.7755" style="stop-color:#FCFBFF"/>
					<stop  offset="1" style="stop-color:#FFFFFF"/>
				</linearGradient>
				<path class="st2" d="M50.3,23.7H33.6v-7.4h16.3c0.2,0,0.4,0.2,0.4,0.4L50.3,23.7L50.3,23.7z"/>
			</g>
			<g>
				
					<linearGradient id="SVGID_2_" gradientUnits="userSpaceOnUse" x1="33.6205" y1="-756.488" x2="50.3816" y2="-756.488" gradientTransform="matrix(1 0 0 -1 0 -728.13)">
					<stop  offset="0" style="stop-color:#C7B3FF"/>
					<stop  offset="6.897312e-02" style="stop-color:#CEBDFF"/>
					<stop  offset="0.3065" style="stop-color:#E3DAFF"/>
					<stop  offset="0.5428" style="stop-color:#F3EEFF"/>
					<stop  offset="0.7755" style="stop-color:#FCFBFF"/>
					<stop  offset="1" style="stop-color:#FFFFFF"/>
				</linearGradient>
				<path class="st3" d="M49.9,32H33.6v-7.4h16.7v6.9C50.3,31.8,50.2,32,49.9,32z"/>
			</g>
			<g>
				<path class="st4" d="M33.6,24.7V8.4c0-0.2-0.2-0.4-0.4-0.4h-6.5c-0.2,0-0.4,0.2-0.4,0.4v17.4c0,3.5,2.8,6.3,6.3,6.3h0.6h0.4H41
					C36.9,32,33.6,28.8,33.6,24.7z"/>
			</g>
		</g>
	</g>
	<g id="Erda">
		<g id="完整白色" transform="translate(-405.000000, -261.000000)">
			<path id="形状结合" class="st0" d="M491,272.1c0.2,0,0.4,0.2,0.4,0.4v2.3c0,0.8-0.6,1.4-1.4,1.5l0,0l0,0l-13.5,0l0,0
				c-0.2,0-0.4,0.1-0.6,0.2c-0.3,0.2-0.5,0.5-0.5,1.3l0,1.1l12.1,0c0.2,0,0.4,0.2,0.4,0.4v2.3c0,0.8-0.7,1.5-1.5,1.5l0,0l-11,0
				l0,1.5l0,0c0,0.1,0.1,0.6,0.5,0.8c0.3,0.2,0.9,0.3,1.1,0.3l13,0c0.8,0,1.5,0.7,1.5,1.5v2.3c0,0.2-0.2,0.4-0.4,0.4h-14.3
				c-0.5,0-0.9-0.1-1.3-0.2c-2-0.5-3.5-2-4-4c-0.1-0.4-0.2-0.9-0.2-1.3v-6.8c0-0.5,0.1-0.9,0.2-1.3c0.5-2,2-3.5,4-4
				c0.4-0.1,0.9-0.2,1.3-0.2H491z M508.7,276.3v2.1c0,0.7-0.5,1.2-1.2,1.2H501c-1.5,0-2.9,0.8-3.7,1.9c-0.5,0.7-0.8,1.6-0.8,2.5v5.9
				h-3.3v-5.2c0,0,0-0.5,0-0.7c0-0.9,0.1-1.7,0.4-2.5c0.2-0.7,0.6-1.3,1-1.9c0.5-0.7,1.1-1.3,1.9-1.9c1.3-0.9,2.8-1.4,4.4-1.4H508.7
				z M524.3,272.1v17.8h-8.6c-1.3,0-2.5-0.4-3.6-1c-0.9-0.6-1.7-1.3-2.3-2.3c-0.6-1-1-2.3-1-3.6c0-1.3,0.4-2.5,1-3.6
				c0.6-0.9,1.3-1.7,2.3-2.3c1-0.6,2.3-1,3.6-1h5.3l0-3c0-0.6,0.5-1.2,1.1-1.2l0,0H524.3z M530.4,289.9c-0.3,0-0.7,0-1-0.1
				c-1.6-0.4-2.8-1.6-3.2-3.2c-0.1-0.3-0.1-0.6-0.1-1s0-0.7,0.1-1c0.4-1.6,1.6-2.8,3.2-3.2c0.3-0.1,0.6-0.1,1-0.1l7.9,0l0-1
				c0-0.5-0.4-1-1-1h-6.7c-0.7,0-1.2-0.5-1.2-1.2v-2.1h7.9c0.3,0,0.7,0,1,0.1c1.6,0.4,2.8,1.6,3.1,3.2c0.1,0.3,0.1,0.6,0.1,1v9.4
				H530.4z M538.3,286.6v-1.9l-7.9,0c-0.5,0-1,0.4-1,1c0,0.5,0.4,1,1,1H538.3z M521,279.5l-5.3,0c-2,0-3.6,1.6-3.6,3.6
				c0,2,1.6,3.6,3.6,3.6l5.3,0V279.5z"/>
		</g>
	</g>
</g>
</svg>
